<svg id="Capa_1" enable-background="new 0 0 512 512" height="512" viewBox="0 0 512 512" width="512" xmlns="http://www.w3.org/2000/svg"><g id="XMLID_26_"><g id="XMLID_1783_"><path id="XMLID_1793_" d="m156.906 343.01c18.529-4.345 32.581-18.08 38.266-35.01h201.664c24.091 0 45.596-16.162 52.296-39.303l48.358-167.017c3.707-12.803 1.24-26.258-6.768-36.913-8.008-10.656-20.246-16.767-33.575-16.767h-117.311c-5.523 0-10 4.478-10 10s4.477 10 10 10h117.311c6.982 0 13.393 3.201 17.587 8.783 4.194 5.581 5.487 12.629 3.545 19.335l-48.358 167.017c-4.239 14.64-17.844 24.865-33.085 24.865h-199.006c-.166-2.763-.545-5.545-1.164-8.326l-47.173-211.674h100.364c5.523 0 10-4.478 10-10s-4.477-10-10-10h-104.821l-1.425-6.393c-5.46-24.498-26.802-41.607-51.9-41.607h-68.888c-5.523 0-10 4.478-10 10v44c0 5.522 4.477 10 10 10h60.21l49.007 219.91c-27.376 10.839-45.775 37.348-45.775 67.481 0 40.036 32.572 72.608 72.608 72.608h26.863c-11.588 9.002-19.065 23.057-19.065 38.833 0 27.11 22.056 49.167 49.167 49.167s49.166-22.057 49.166-49.167c0-15.776-7.477-29.831-19.065-38.833h110.264c-11.588 9.002-19.065 23.057-19.065 38.833 0 27.11 22.056 49.167 49.167 49.167 27.11 0 49.167-22.057 49.167-49.167 0-15.776-7.477-29.831-19.065-38.833h52.417c5.523 0 10-4.478 10-10v-44c0-5.522-4.477-10-10-10h-309.95c-4.747 0-8.608-3.861-8.608-8.608-.002-4.017 2.729-7.463 6.64-8.381zm58.932 148.99c-16.083 0-29.167-13.084-29.167-29.167 0-16.082 13.084-29.166 29.167-29.166s29.167 13.084 29.167 29.166c-.001 16.083-13.085 29.167-29.167 29.167zm170.467 0c-16.083 0-29.167-13.084-29.167-29.167 0-16.082 13.084-29.166 29.167-29.166s29.167 13.084 29.167 29.166c-.001 16.083-13.085 29.167-29.167 29.167zm-256.041-140.608c0 15.774 12.833 28.608 28.608 28.608h299.95v24h-299.95c-29.008 0-52.608-23.6-52.608-52.608 0-24.232 16.417-45.229 39.924-51.058 5.271-1.307 8.535-6.581 7.354-11.881l-52.732-236.628c-1.019-4.573-5.076-7.825-9.76-7.825h-58.227v-24h58.888c15.658 0 28.973 10.675 32.38 25.958l53.054 238.065c3.935 17.658-7.193 35.385-24.805 39.515-12.998 3.048-22.076 14.502-22.076 27.854z"/><path id="XMLID_1829_" d="m294.835 68c2.63 0 5.21-1.07 7.07-2.931 1.86-1.859 2.93-4.439 2.93-7.069s-1.07-5.21-2.93-7.07-4.44-2.93-7.07-2.93-5.21 1.069-7.07 2.93c-1.86 1.86-2.93 4.44-2.93 7.07s1.07 5.21 2.93 7.069c1.86 1.861 4.44 2.931 7.07 2.931z"/></g></g></svg>